<svg xmlns="http://www.w3.org/2000/svg" width="48" height="48"><path stroke="#449FDB" d="M0 0h0"/><path d="M16.222 32.778a1 1 0 0 1-.708-1.706l15.554-15.548a1.012 1.012 0 0 1 1.414 0c.388.384.388 1.03 0 1.414L16.928 32.486a.996.996 0 0 1-.706.292z"/><path d="M31.778 32.778c-.256 0-.512-.098-.708-.292l-15.554-15.55c-.39-.384-.39-1.03 0-1.414s1.024-.384 1.414 0L32.484 31.07a1 1 0 0 1-.706 1.708z"/><path d="M24 47C11.318 47 1 36.68 1 24 1 11.316 11.318 1 24 1s23 10.316 23 23c0 12.68-10.318 23-23 23zm0-44C12.42 3 3 12.418 3 24c0 11.578 9.42 21 21 21s21-9.422 21-21c0-11.582-9.42-21-21-21z"/></svg>