<svg xmlns="http://www.w3.org/2000/svg" width="48" height="48"><path stroke="#449FDB" d="M0 0h0"/><path d="M46.91 47.478a.134.134 0 0 0-.04 0H1.088a1 1 0 0 1-.892-1.45l22.89-45c.342-.672 1.444-.672 1.786 0L47.65 45.81a.999.999 0 0 1-.74 1.668zm-44.192-2h42.52L23.978 3.686 2.718 45.478z"/><path d="M25.942 35.478h-4.036c-1.072 0-1.306-1.3-1.306-1.804l-.738-13.604a.97.97 0 0 1 .962-1.02l6.13-.042a.966.966 0 0 1 .976 1.016l-.684 13.95c.002.576-.412 1.504-1.304 1.504zm-3.352-2h2.684L25.916 21h-3.998l.672 12.478zm4.192 10h-5.384c-.72 0-1.306-.588-1.306-1.304v-3.388c0-.714.586-1.3 1.306-1.3h5.384c.718 0 1.304.586 1.304 1.3v3.388c0 .716-.586 1.304-1.304 1.304zm-4.696-2h4v-2h-4v2z"/></svg>