<svg xmlns="http://www.w3.org/2000/svg" width="48" height="48"><path stroke="#449FDB" d="M0 0h0"/><path d="M27.01 36.042h-6c-.552 0-1-.45-1-1v-14c0-.55.448-1 1-1h6c.552 0 1 .45 1 1v14a1 1 0 0 1-1 1zm-5-2h4v-12h-4v12zm2-15.932c-2.212 0-4.012-1.796-4.012-4.012s1.8-4.012 4.012-4.012c2.212 0 4.012 1.796 4.012 4.012s-1.8 4.012-4.012 4.012zm0-6.024c-1.11 0-2.012.902-2.012 2.012s.902 2.012 2.012 2.012a2.012 2.012 0 0 0 0-4.024z"/><path d="M24 48C10.766 48 0 37.234 0 24S10.766 0 24 0s24 10.766 24 24-10.766 24-24 24zm0-46C11.87 2 2 11.874 2 24c0 12.13 9.87 22 22 22 12.128 0 22-9.87 22-22 0-12.128-9.868-22-22-22z"/></svg>